<svg width="20" height="21" viewBox="0 0 20 21" fill="none" xmlns="http://www.w3.org/2000/svg">
<path d="M0.553438 1.49444C-0.184478 2.23116 -0.184478 3.42563 0.55344 4.16236L7.32778 10.9258L0.553436 17.6892C-0.184481 18.4259 -0.184479 19.6204 0.553437 20.3571C1.29136 21.0938 2.48776 21.0938 3.22567 20.3571L10 13.5937L16.7743 20.3571C17.5122 21.0938 18.7086 21.0938 19.4466 20.3571C20.1845 19.6203 20.1845 18.4259 19.4466 17.6891L12.6722 10.9258L19.4466 4.16238C20.1845 3.42566 20.1845 2.23119 19.4466 1.49447C18.7086 0.757741 17.5122 0.757741 16.7743 1.49447L10 8.25784L3.22567 1.49444C2.48776 0.757712 1.29136 0.757712 0.553438 1.49444Z" fill="#754E29"/>
</svg>
